<?xml version="1.0" encoding="utf-8"?>
<!-- Generator: Adobe Illustrator 24.3.0, SVG Export Plug-In . SVG Version: 6.00 Build 0)  -->
<svg version="1.1" id="Layer_1" xmlns="http://www.w3.org/2000/svg" xmlns:xlink="http://www.w3.org/1999/xlink" x="0px" y="0px"
	 viewBox="0 625 2000 750" style="enable-background:new 0 0 2000 2000;" xml:space="preserve">
<style type="text/css">
	.st0 {
        <!-- TODO(dnguyen0304): Replace temporary placeholder. -->
        fill: #009444;
    }
</style>
<g>
	<g>
		<g>
			<g>
				<g>
					<path class="st0" d="M1191.93,881.43c-22.05,0-39.93,17.87-39.93,39.92c0,22.05,17.88,39.92,39.93,39.92
						c22.04,0,39.92-17.87,39.92-39.92C1231.85,899.3,1213.97,881.43,1191.93,881.43z M1171.7,904.58c-2.29,0-4.15-1.86-4.15-4.17
						c0-2.3,1.86-4.16,4.15-4.16c2.3,0,4.17,1.86,4.17,4.16C1175.86,902.71,1174,904.58,1171.7,904.58z M1207.8,940.47
						c-10.56,0-19.12-8.55-19.12-19.12c0-10.56,8.55-19.12,19.12-19.12c10.56,0,19.12,8.55,19.12,19.12
						C1226.92,931.91,1218.36,940.47,1207.8,940.47z"/>
				</g>
			</g>
		</g>
	</g>
	<g>
		<g>
			<g>
				<g>
					<g>
						<path class="st0" d="M1432.33,875.09c6.54,6.02,9.3,13.73,6.16,17.24c-3.14,3.5-10.99,1.46-17.53-4.55
							c-6.54-6.02-9.3-13.73-6.16-17.24C1417.94,867.04,1425.79,869.07,1432.33,875.09z"/>
					</g>
				</g>
			</g>
		</g>
	</g>
	<g>
		<path class="st0" d="M1049.48,1268.71c-29.22,0-57.92-3.98-59.73-4.24l-8.39-1.19l0.23-8.47c0.01-0.19,0.51-19.76-0.68-40.58
			c-1.68-29.31-5.45-39.74-7.28-43.17c-28.83,12.81-52.18,20.74-78.24,20.91c-0.27,0-0.54,0-0.8,0c-26.67,0-55.96-8.28-91.48-20.8
			c-1.5,3.59-4.25,14.24-3.32,43.05c0.67,20.53,2.88,39.55,2.91,39.74l1.11,9.42l-9.42,1.11c-2.76,0.33-68.06,7.9-106.6-0.13
			c-6.05-1.26-15.28-5.68-33.02-28.88c-10.77-14.08-23.4-33.51-36.52-56.17c-25.72-44.45-49.28-93.99-60.04-126.21
			c-27.45-82.29-10.86-172.71,43.29-235.98c30.3-35.4,72.74-62.44,119.52-76.16c48.94-14.35,99.18-12.67,141.45,4.71
			c41.35,17.01,77.06,40.83,108.56,61.85c41.37,27.6,74.04,49.4,97.83,41.72c20.46-6.6,31.73-11.35,37.8-14.36
			c-2.63-3.19-5.55-7.12-8.13-11.5c-13.45-22.78-6.12-37.65-0.55-44.48c6.06-7.44,12.51-8.44,16.85-7.97
			c13.33,1.44,21.84,18.28,29.34,33.15c1.74,3.45,3.99,7.89,5.54,10.39c1.07-0.07,2.31-0.18,3.42-0.27
			c17.91-1.52,59.86-5.06,94.91,32.09c27.34,28.98,43.09,16.09,61.32,1.15c3.11-2.55,6.06-4.96,9.02-7.06
			c13.03-9.23,55.95-23.61,96.13-15.02c24.94,5.34,43.66,18.34,55.64,38.65c16,27.13,22.31,58.17,17.77,87.4
			c-5.46,35.12-26.4,65.33-60.55,87.34c-57.55,37.08-140.85,12.34-185.6-0.95c-2.65-0.79-5.14-1.53-7.46-2.2
			c-10.93,29.46-35.61,80.03-61.57,125.73c-54.57,96.09-73.97,101.58-80.58,102.98C1080.33,1267.61,1064.83,1268.71,1049.48,1268.71
			z M1000.68,1246.69c18.37,2.08,62.79,6.06,86.59-0.75l0.67-0.17c5.88-1.23,27.72-22.41,68.28-93.84
			c27.7-48.77,54.78-105,63-130.78l2.73-8.58l8.71,2.27c4.6,1.2,10.12,2.84,16.5,4.74c41.83,12.43,119.7,35.55,169.91,3.19
			c62.4-40.21,63.4-103.88,36.72-149.14c-9.17-15.55-23.72-25.55-43.26-29.73c-34.71-7.43-72.14,5.53-81.18,11.94
			c-2.42,1.72-5.12,3.92-7.97,6.26c-17.83,14.6-47.67,39.04-87.15-2.81c-28.77-30.49-63.04-27.59-79.51-26.2
			c-4.78,0.4-7.94,0.67-10.69,0.12c-7.14-1.43-10.78-8.64-16.82-20.6c-3.01-5.95-9.77-19.34-13.94-22.41
			c-0.17,0.17-0.37,0.39-0.59,0.67c-11.17,13.7,14.46,38.33,14.72,38.57l3.54,3.31l-0.59,4.82c-0.7,5.56-6.05,9.27-11.2,12.17
			c-8.84,4.97-23.8,10.88-44.47,17.55c-32.52,10.49-68.57-13.55-114.2-44c-30.77-20.52-65.64-43.79-105.24-60.08
			c-77.01-31.67-179.89-3.2-239.32,66.23c-49.84,58.24-65.05,141.63-39.7,217.63c10.22,30.63,33.72,79.95,58.46,122.72
			c34.6,59.8,52.86,75.12,56.98,75.98c27.4,5.71,71.98,2.57,91.21,0.81c-0.75-8.11-1.72-20.45-2.09-33.39
			c-1.21-42.56,4.99-53.38,11.22-58.35c4.28-3.41,9.8-4.28,15.14-2.38c76.74,27.23,100.81,27.27,160.96,0.29
			c5.14-2.3,10.68-1.9,15.22,1.13c6.67,4.45,13.84,14.79,16.46,57.79C1000.6,1225.38,1000.72,1238.48,1000.68,1246.69z"/>
	</g>
	<g>
		<g>
			<g>
				<path class="st0" d="M528.94,928.11l-18.29-5.07c10.72-38.67,30-54.21,44.29-60.44c15.99-6.97,29.26-4.24,30.72-3.9l-4.23,18.5
					l2.11-9.25l-2.02,9.27C580.04,876.92,544.93,870.42,528.94,928.11z"/>
			</g>
		</g>
	</g>
</g>
</svg>
